# xmcd
#
# Track frame offsets: 
#        150
#        18109
#        37033
#        55913
#        76031
#        89788
#        106437
#        124515
#        139766
#        149768
#        168107
#        183753
#        197055
#
# Disc length: 2896 seconds
#
# Revision: 0
# Processed by: cddbd v1.5.2PL0 Copyright (c) Steve Scherf et al.
# Submitted via: ExactAudioCopy v0.95b3
#
DISCID=ac0b4e0d
DTITLE=Michelle Malone - Sugarfoot
DYEAR=2006
DGENRE=Southern Rock
TTITLE0=Tighten Up The Springs
TTITLE1=Where Is The Love
TTITLE2=Beyond The Mountain
TTITLE3=Miss Miss'ippi
TTITLE4=Traveling And Unravelling
TTITLE5=Winter Muscadine
TTITLE6=Black Motorcycle Boots
TTITLE7=Down
TTITLE8=Friendly Fire
TTITLE9=Soul Chicken
TTITLE10=Rooster 44
TTITLE11=Leather Bracelet
TTITLE12=Where Is The Love (Radio Mix)
EXTD=
EXTT0=
EXTT1=
EXTT2=
EXTT3=
EXTT4=
EXTT5=
EXTT6=
EXTT7=
EXTT8=
EXTT9=
EXTT10=
EXTT11=
EXTT12=
PLAYORDER=
